<svg xmlns="http://www.w3.org/2000/svg" viewBox="0 0 36.18 32.29" id="svg">
  <g id="Camada_2" data-name="Camada 2">
    <g id="Camada_1-2" data-name="Camada 1">
      <path d="M29.54,11.62h.65a5,5,0,0,1,5,5v9.7a5,5,0,0,1-5,5H6a5,5,0,0,1-5-5V11.72a5,5,0,0,1,5-5H31.64A2.86,2.86,0,0,0,34.5,3.87h0A2.86,2.86,0,0,0,31.64,1H1"
        style="fill:none;;stroke-linecap:round;stroke-linejoin:round;stroke-width:2px" />
      <ellipse cx="12.92" cy="20.29" rx="5.25" ry="5.41" style="fill:none;;stroke-linecap:round;stroke-linejoin:round;stroke-width:1.5px" />
      <polyline points="18.17 20.29 14.24 20.29 12.92 20.29 12.92 14.88" style="fill:none;;stroke-linecap:round;stroke-linejoin:round;stroke-width:1.5px" />
      <line x1="22.64" y1="24.84" x2="27.98" y2="24.85" style="fill:none;;stroke-linecap:round;stroke-linejoin:round;stroke-width:1.5px" />
      <line x1="24.13" y1="21.14" x2="27.98" y2="21.14" style="fill:none;;stroke-linecap:round;stroke-linejoin:round;stroke-width:1.5px" />
      <line x1="25.11" y1="17.58" x2="27.73" y2="17.58" style="fill:none;;stroke-linecap:round;stroke-linejoin:round;stroke-width:1.5px" />
      <line x1="25.2" y1="11.62" x2="26.47" y2="11.62" style="fill:none;;stroke-linecap:round;stroke-linejoin:round;stroke-width:2px" />
      <line x1="22.08" y1="11.62" x2="22.08" y2="11.62" style="fill:none;;stroke-linecap:round;stroke-linejoin:round;stroke-width:2px" />
    </g>
  </g>
</svg>
