<svg xmlns="http://www.w3.org/2000/svg" id="svg" viewBox="0 0 38.67 40.11">
  <g id="Camada_2" data-name="Camada 2">
    <g id="Camada_1-2" data-name="Camada 1">
      <line x1="31.35" y1="39.4" x2="31.35" y2="39.4" style="fill:none;;stroke-linecap:round;stroke-linejoin:round;stroke-width:1.42794367415497px" />
      <path d="M33.53,39A6.64,6.64,0,0,0,38,32.76,6.77,6.77,0,0,0,37.72,31" style="fill:none;;stroke-linecap:round;stroke-linejoin:round;stroke-width:1.42794367415497px;stroke-dasharray:0,2.210052013397217" />
      <line x1="37.34" y1="29.97" x2="37.34" y2="29.97" style="fill:none;;stroke-linecap:round;stroke-linejoin:round;stroke-width:1.42794367415497px" />
      <path d="M35,27.19a6.63,6.63,0,1,0-3.6,12.21" style="fill:none;;stroke-linecap:round;stroke-linejoin:round;stroke-width:1.42794367415497px" />
      <path d="M29.56,35.48c3,2.33,5.34-1.59,1.83-2.91-3.36-1.12-1.51-4.5,1.44-2.95" style="fill:none;;stroke-linecap:round;stroke-linejoin:round;stroke-width:1.06554943030676px" />
      <line x1="31.31" y1="28.28" x2="31.31" y2="37.25" style="fill:none;;stroke-linecap:round;stroke-linejoin:round;stroke-width:0.710366286871172px" />
      <path d="M21.45,36.72H5a4,4,0,0,1-4-4V19" style="fill:none;;stroke-linecap:round;stroke-linejoin:round;stroke-width:2px" />
      <path d="M34.78,10.09V9.54a3,3,0,0,0-3-3H4a3,3,0,0,0-3,3v1.17a3,3,0,0,0,3,3H31.78a3,3,0,0,1,3,3v4.92" style="fill:none;;stroke-linecap:round;stroke-linejoin:round;stroke-width:2px" />
      <rect x="5.14" y="18.57" width="2.32" height="2.31" rx="0.71" ry="0.71" style="" />
      <rect x="10.92" y="18.57" width="2.32" height="2.31" rx="0.71" ry="0.71" style="" />
      <rect x="16.66" y="18.57" width="2.32" height="2.31" rx="0.71" ry="0.71" style="" />
      <rect x="22.41" y="18.57" width="2.32" height="2.31" rx="0.71" ry="0.71" style="" />
      <rect x="28.15" y="18.57" width="2.32" height="2.31" rx="0.71" ry="0.71" style="" />
      <rect x="5.15" y="24.27" width="2.32" height="2.31" rx="0.71" ry="0.71" style="" />
      <rect x="10.93" y="24.27" width="2.32" height="2.31" rx="0.71" ry="0.71" style="" />
      <rect x="16.68" y="24.27" width="2.32" height="2.31" rx="0.71" ry="0.71" style="" />
      <rect x="22.42" y="24.27" width="2.32" height="2.31" rx="0.71" ry="0.71" style="" />
      <rect x="5.17" y="29.97" width="2.32" height="2.31" rx="0.71" ry="0.71" style="" />
      <rect x="10.95" y="29.97" width="2.32" height="2.31" rx="0.71" ry="0.71" style="" />
      <rect x="16.69" y="29.97" width="2.32" height="2.31" rx="0.71" ry="0.71" style="" />
      <path d="M5,5.82V4A3,3,0,0,1,8,1H8a3,3,0,0,1,3,3V10" style="fill:none;;stroke-linecap:round;stroke-linejoin:round;stroke-width:2px" />
      <path d="M23,5.82V4a3,3,0,0,1,3-3h0a3,3,0,0,1,3,3V10" style="fill:none;;stroke-linecap:round;stroke-linejoin:round;stroke-width:2px" />
    </g>
  </g>
</svg>
